<?xml version="1.0" standalone="no"?>
<!DOCTYPE svg PUBLIC "-//W3C//DTD SVG 20010904//EN"
 "http://www.w3.org/TR/2001/REC-SVG-20010904/DTD/svg10.dtd">
<svg version="1.0" xmlns="http://www.w3.org/2000/svg"
 width="301.000000pt" height="167.000000pt" viewBox="0 0 301.000000 167.000000"
 preserveAspectRatio="xMidYMid meet">

<g transform="translate(0.000000,167.000000) scale(0.100000,-0.100000)"
fill="#000000" stroke="none">
<path d="M0 1283 l0 -386 240 6 c157 5 240 3 240 -3 0 -6 34 -10 80 -10 64 0
80 3 80 15 0 11 11 15 40 15 28 0 40 4 40 15 0 11 17 15 71 17 58 2 74 7 83
22 25 42 85 93 100 84 9 -6 45 35 39 45 -4 6 -1 7 6 3 8 -5 14 0 18 13 3 12 8
21 12 21 4 0 18 10 31 22 13 13 33 21 43 20 12 -2 20 4 24 17 6 24 23 28 23 6
0 -23 17 -18 24 8 3 12 6 59 6 104 0 61 3 82 13 80 14 -2 25 -60 26 -140 1
-49 4 -57 19 -55 10 2 16 -2 14 -10 -1 -8 2 -11 8 -7 12 7 80 -45 80 -62 0 -7
4 -13 8 -13 20 0 100 -72 127 -115 10 -17 20 -24 23 -17 6 18 20 14 27 -8 4
-13 15 -20 31 -20 17 0 24 -5 24 -20 0 -11 5 -20 10 -20 6 0 10 5 10 12 0 6 9
3 20 -7 14 -13 17 -21 9 -26 -8 -5 -8 -8 0 -13 6 -4 11 -2 11 3 0 6 21 11 50
11 28 0 50 -4 50 -10 0 -5 7 -10 15 -10 9 0 27 -7 40 -16 15 -10 25 -12 25 -5
0 6 17 11 40 11 22 0 40 -4 40 -9 0 -11 110 -21 227 -20 50 0 94 -4 97 -10 3
-5 40 -12 81 -16 41 -4 75 -12 75 -17 0 -7 36 -9 98 -6 73 3 102 1 120 -10 19
-13 22 -12 22 1 0 12 26 14 185 9 l185 -5 0 447 0 446 -1505 0 -1505 0 0 -387z
m1232 255 c2 -13 1 -40 0 -60 -3 -27 -8 -35 -18 -31 -19 7 -17 113 2 113 7 0
14 -10 16 -22z m756 -665 c-10 -2 -28 -2 -40 0 -13 2 -5 4 17 4 22 1 32 -1 23
-4z m955 -80 c-13 -2 -33 -2 -45 0 -13 2 -3 4 22 4 25 0 35 -2 23 -4z"/>
<path d="M240 855 c0 -13 4 -14 20 -5 11 6 20 13 20 15 0 3 -9 5 -20 5 -11 0
-20 -7 -20 -15z"/>
<path d="M2943 693 c15 -2 37 -2 50 0 12 2 0 4 -28 4 -27 0 -38 -2 -22 -4z"/>
<path d="M2687 674 c-15 -8 -31 -12 -36 -9 -5 3 -11 1 -13 -3 -3 -8 -56 -28
-323 -124 -60 -21 -175 -64 -255 -94 l-146 -55 4 -128 4 -128 -91 -13 -91 -14
0 -53 0 -53 370 0 371 0 -7 113 c-6 93 -4 114 7 115 8 1 70 4 139 7 69 3 128
9 132 13 3 4 2 72 -3 152 -5 80 -10 176 -12 215 -3 38 -8 70 -13 72 -5 1 -21
-5 -37 -13z m-877 -578 c0 -3 -4 -8 -10 -11 -5 -3 -10 -1 -10 4 0 6 5 11 10
11 6 0 10 -2 10 -4z"/>
<path d="M2808 683 c6 -2 18 -2 25 0 6 3 1 5 -13 5 -14 0 -19 -2 -12 -5z"/>
<path d="M2560 666 c0 -2 7 -7 16 -10 8 -3 12 -2 9 4 -6 10 -25 14 -25 6z"/>
<path d="M967 530 c-4 -17 -12 -29 -19 -28 -8 2 -14 -10 -16 -33 -2 -28 2 -38
20 -47 21 -11 23 -19 20 -72 -4 -59 3 -71 26 -48 9 9 16 8 30 -5 37 -34 45
-23 37 61 -4 44 -2 88 3 103 6 14 7 41 3 60 -6 32 -9 34 -53 37 -43 3 -46 2
-51 -28z"/>
<path d="M2819 58 c0 -22 -1 -22 -9 -3 -7 16 -9 13 -9 -17 l-1 -38 105 0 105
0 0 31 c0 30 -1 31 -44 28 -26 -3 -48 1 -55 9 -7 6 -30 12 -51 12 -35 0 -40
-3 -41 -22z"/>
<path d="M1130 61 c0 -5 -8 -7 -19 -4 -10 3 -22 0 -25 -6 -4 -6 -17 -12 -29
-13 -12 -1 21 -4 73 -8 52 -3 106 -3 120 1 24 7 11 13 -22 10 -9 -1 -19 3 -22
8 -4 6 -13 8 -20 5 -8 -3 -17 -1 -21 5 -8 13 -35 15 -35 2z"/>
<path d="M578 38 c17 -11 20 -16 10 -26 -9 -9 4 -12 63 -11 40 0 67 3 59 6 -8
3 -18 10 -21 16 -4 5 -26 11 -50 12 -24 2 -53 6 -64 10 -16 5 -16 4 3 -7z"/>
<path d="M905 29 c-10 -30 -1 -33 47 -16 31 11 36 16 20 16 -13 1 -32 5 -42
11 -15 8 -20 6 -25 -11z"/>
<path d="M1345 40 c-3 -5 1 -10 10 -10 9 0 13 5 10 10 -3 6 -8 10 -10 10 -2 0
-7 -4 -10 -10z"/>
<path d="M1298 23 c7 -3 16 -2 19 1 4 3 -2 6 -13 5 -11 0 -14 -3 -6 -6z"/>
</g>
</svg>
